control3min_grf.mot
version=1
nRows=17
nColumns 19
inDegrees=yes
endheader
time	1_ground_force_vx	1_ground_force_vy	1_ground_force_vz	1_ground_force_px	1_ground_force_py	1_ground_force_pz	1_ground_torque_x	1_ground_torque_y	1_ground_torque_z	2_ground_force_vx	2_ground_force_vy	2_ground_force_vz	2_ground_force_px	2_ground_force_py	2_ground_force_pz	2_ground_torque_x	2_ground_torque_y	2_ground_torque_z
            0.005000	            0.506284	            2.699757	            1.019173	           -0.268392	            0.006211	           -0.404015	           -0.232716	            0.083897	           -0.090445	            0.514108	            0.190695	           -1.313549	           -0.264133	            0.005517	           -0.694039	           -0.112678	           -0.009860	            0.000014
            0.005500	            0.415071	            1.978087	            1.153876	           -0.268392	            0.006211	           -0.404015	           -0.181662	            0.028168	           -0.038300	            0.372894	            0.374336	           -1.312832	           -0.264133	            0.005517	           -0.694039	           -0.150471	            0.056039	            0.037967
            0.006000	            0.277380	            1.617922	            1.060960	           -0.268392	            0.006211	           -0.404015	           -0.252561	           -0.055184	           -0.025535	            0.323468	            1.110091	           -1.122472	           -0.264133	            0.005517	           -0.694039	           -0.169196	            0.037133	            0.019057
            0.006500	            0.186119	            0.535917	            1.148262	           -0.268392	            0.006211	           -0.404015	           -0.312332	           -0.073318	           -0.123326	            0.513464	            0.374676	           -1.265964	           -0.264133	            0.005517	           -0.694039	           -0.131539	           -0.000139	           -0.094195
            0.007000	            0.140112	            1.437237	            1.152240	           -0.268392	            0.006211	           -0.404015	           -0.162923	           -0.091475	           -0.200954	            0.328703	           -0.362426	           -1.315440	           -0.264133	            0.005517	           -0.694039	           -0.150077	           -0.066443	           -0.075573
            0.007500	            0.093960	            1.257552	            1.014013	           -0.268392	            0.006211	           -0.404015	           -0.194187	            0.037337	           -0.070686	            0.375717	           -0.363596	           -0.940036	           -0.264133	            0.005517	           -0.694039	           -0.093747	           -0.056854	           -0.056713
            0.008000	            0.323355	            0.896868	            1.057754	           -0.268392	            0.006211	           -0.404015	           -0.252315	            0.139271	           -0.097914	            0.421135	            0.005707	           -1.173382	           -0.264133	            0.005517	           -0.694039	           -0.112660	           -0.019178	           -0.037720
            0.008500	            0.093682	            2.159077	            0.972022	           -0.268392	            0.006211	           -0.404015	           -0.193050	            0.065469	           -0.164590	            0.419785	            0.374171	           -1.218996	           -0.264133	            0.005517	           -0.694039	           -0.074969	           -0.065902	           -0.151006
            0.009000	            0.460282	            1.078144	            0.828906	           -0.268392	            0.006211	           -0.404015	           -0.242701	           -0.036135	           -0.130428	            0.516246	           -0.362921	           -0.987023	           -0.264133	            0.005517	           -0.694039	           -0.188049	            0.046787	           -0.056302
            0.009500	            0.094317	            1.797563	            1.199756	           -0.268392	            0.006211	           -0.404015	           -0.333973	           -0.073201	           -0.164822	            0.558985	            0.743142	           -1.264670	           -0.264133	            0.005517	           -0.694039	           -0.131429	           -0.019380	           -0.000012
            0.010000	            0.415478	            1.616966	            1.289898	           -0.268392	            0.006211	           -0.404015	           -0.262411	           -0.082683	           -0.057361	            0.465224	            0.743306	           -1.405414	           -0.264133	            0.005517	           -0.694039	           -0.187819	           -0.010131	            0.000046
            0.010500	            0.232463	            2.156941	            1.476096	           -0.268392	            0.006211	           -0.404015	           -0.270659	           -0.008735	           -0.083659	            0.609137	           -0.177263	           -1.314903	           -0.264133	            0.005517	           -0.694039	           -0.093739	           -0.056921	           -0.037863
            0.011000	            0.049142	            1.255774	            1.426830	           -0.268392	            0.006211	           -0.404015	           -0.174349	            0.092956	           -0.110047	            0.701652	            0.190200	           -0.985132	           -0.264133	            0.005517	           -0.694039	           -0.093609	           -0.103848	           -0.132282
            0.011500	            0.140112	            1.437237	            1.152240	           -0.268392	            0.006211	           -0.404015	           -0.218948	            0.102062	           -0.068398	            0.700967	            0.374516	           -1.031403	           -0.264133	            0.005517	           -0.694039	           -0.150062	           -0.057393	            0.037562
            0.012000	            0.644385	            1.437334	            1.150989	           -0.268392	            0.006211	           -0.404015	           -0.312793	            0.056139	           -0.065658	            0.611337	           -0.731382	           -0.847593	           -0.264133	            0.005517	           -0.694039	           -0.093815	           -0.037948	           -0.056646
            0.012500	            0.506544	            2.519098	            1.110112	           -0.268392	            0.006211	           -0.404015	           -0.236252	           -0.055154	            0.002964	            0.562308	           -0.177599	           -1.267955	           -0.264133	            0.005517	           -0.694039	           -0.169187	            0.027882	           -0.037527
            0.013000	            0.322849	            1.798787	            0.924051	           -0.268392	            0.006211	           -0.404015	           -0.228352	           -0.100816	           -0.155429	            0.324818	            0.741627	           -1.076858	           -0.264133	            0.005517	           -0.694039	           -0.187990	            0.037133	            0.000215
